<mxfile host="65bd71144e">
    <diagram id="tHa_Tt909zJz71iN8kBe" name="Page-1">
        <mxGraphModel dx="1139" dy="747" grid="1" gridSize="10" guides="1" tooltips="1" connect="1" arrows="1" fold="1" page="1" pageScale="1" pageWidth="850" pageHeight="1100" math="0" shadow="0">
            <root>
                <mxCell id="0"/>
                <mxCell id="1" parent="0"/>
                <mxCell id="5" value="" style="ellipse;whiteSpace=wrap;html=1;aspect=fixed;fillStyle=cross-hatch;gradientColor=none;fillColor=#E0D136;dashed=1;dashPattern=8 8;" parent="1" vertex="1">
                    <mxGeometry x="440" y="70" width="330" height="330" as="geometry"/>
                </mxCell>
                <mxCell id="2" value="Receiver1&lt;br&gt;(Alerted state)" style="ellipse;whiteSpace=wrap;html=1;aspect=fixed;strokeColor=#F03E3E;" parent="1" vertex="1">
                    <mxGeometry x="670" y="270" width="80" height="80" as="geometry"/>
                </mxCell>
                <mxCell id="3" value="Transceiver" style="ellipse;whiteSpace=wrap;html=1;aspect=fixed;" parent="1" vertex="1">
                    <mxGeometry x="565" y="195" width="80" height="80" as="geometry"/>
                </mxCell>
                <mxCell id="4" value="Receiver2" style="ellipse;whiteSpace=wrap;html=1;aspect=fixed;" parent="1" vertex="1">
                    <mxGeometry x="630" y="400" width="80" height="80" as="geometry"/>
                </mxCell>
                <mxCell id="6" value="&lt;h1&gt;Sound Alert System&lt;/h1&gt;&lt;p&gt;This is a system to create an &quot;imaginary audio system&quot; that can be used by any object to have the ability to &quot;create sound&quot; and &quot;hear sound&quot;. This system is often used for &quot;alerting&quot; mechanics. Also, this system does not actually use Unity's audio system.&lt;br&gt;&lt;/p&gt;" style="text;html=1;strokeColor=none;fillColor=none;spacing=5;spacingTop=-20;whiteSpace=wrap;overflow=hidden;rounded=0;dashed=1;dashPattern=8 8;fillStyle=cross-hatch;" parent="1" vertex="1">
                    <mxGeometry x="50" y="70" width="250" height="160" as="geometry"/>
                </mxCell>
                <mxCell id="7" value="&lt;h1&gt;Trigger Body&lt;/h1&gt;&lt;p&gt;Karena sistem ini membuat suara secara imaginer, body (trigger) digunakan untuk meng-register semua potensi receiver yang nanti akan digunakan saat proses tranceiving.&lt;/p&gt;" style="text;html=1;strokeColor=none;fillColor=none;spacing=5;spacingTop=-20;whiteSpace=wrap;overflow=hidden;rounded=0;dashed=1;dashPattern=8 8;fillStyle=cross-hatch;" parent="1" vertex="1">
                    <mxGeometry x="50" y="260" width="190" height="140" as="geometry"/>
                </mxCell>
            </root>
        </mxGraphModel>
    </diagram>
</mxfile>